<svg width="18" height="18" viewBox="0 0 18 18" fill="none" xmlns="http://www.w3.org/2000/svg">
<g opacity="0.5" clip-path="url(#clip0)">
<path d="M10.7227 9.00001C10.7227 9.95142 9.95142 10.7227 9 10.7227C8.04858 10.7227 7.27734 9.95142 7.27734 9.00001C7.27734 8.04859 8.04858 7.27735 9 7.27735C9.95142 7.27735 10.7227 8.04859 10.7227 9.00001Z" fill="black"/>
<path d="M13.0287 5.95213C12.9459 5.72773 12.8138 5.52462 12.6421 5.3579C12.4754 5.18624 12.2724 5.05413 12.0479 4.97132C11.8658 4.9006 11.5922 4.81642 11.0884 4.79348C10.5433 4.76862 10.3799 4.76327 9 4.76327C7.61998 4.76327 7.45656 4.76849 6.91164 4.79334C6.40778 4.81641 6.13408 4.9006 5.95212 4.97132C5.72758 5.05413 5.52448 5.18624 5.35789 5.3579C5.18623 5.52462 5.05412 5.72759 4.97118 5.95213C4.90045 6.13422 4.81627 6.40792 4.79333 6.91178C4.76848 7.4567 4.76312 7.62012 4.76312 9.00014C4.76312 10.38 4.76848 10.5434 4.79333 11.0885C4.81627 11.5924 4.90045 11.8659 4.97117 12.048C5.05412 12.2726 5.18609 12.4755 5.35776 12.6423C5.52447 12.8139 5.72745 12.946 5.95198 13.0288C6.13408 13.0997 6.40777 13.1839 6.91163 13.2068C7.45656 13.2317 7.61984 13.2369 8.99986 13.2369C10.38 13.2369 10.5434 13.2317 11.0882 13.2068C11.5921 13.1839 11.8658 13.0997 12.0479 13.0288C12.4986 12.855 12.8548 12.4987 13.0287 12.048C13.0994 11.8659 13.1836 11.5924 13.2067 11.0885C13.2315 10.5435 13.2367 10.38 13.2367 9.00015C13.2367 7.62013 13.2315 7.4567 13.2067 6.91178C13.1837 6.40792 13.0995 6.13423 13.0287 5.95213ZM9 11.6538C7.53429 11.6538 6.34611 10.4657 6.34611 9.00001C6.34611 7.53429 7.53429 6.34626 9 6.34626C10.4656 6.34626 11.6537 7.5343 11.6537 9.00001C11.6537 10.4657 10.4656 11.6538 9 11.6538ZM11.7587 6.86152C11.4162 6.86152 11.1385 6.58384 11.1385 6.24134C11.1385 5.89884 11.4162 5.62116 11.7587 5.62116C12.1012 5.62116 12.3788 5.89884 12.3788 6.24134C12.3787 6.58384 12.1012 6.86152 11.7587 6.86152Z" fill="black"/>
<path d="M9 9.203e-06C4.0302 8.33406e-06 -7.04662e-07 4.0302 -1.57361e-06 9.00001C-2.44256e-06 13.9698 4.03019 18 9 18C13.9698 18 18 13.9698 18 9.00001C18 4.03021 13.9698 1.0072e-05 9 9.203e-06ZM14.1368 11.1307C14.1118 11.6808 14.0243 12.0564 13.8966 12.3852C13.6281 13.0794 13.0794 13.6281 12.3852 13.8966C12.0565 14.0243 11.6808 14.1117 11.1308 14.1368C10.5797 14.1619 10.4036 14.168 9.00013 14.168C7.59649 14.168 7.42058 14.1619 6.86934 14.1368C6.31933 14.1117 5.9436 14.0243 5.61497 13.8966C5.27 13.7668 4.95772 13.5635 4.69954 13.3005C4.43669 13.0424 4.2333 12.73 4.10353 12.3852C3.97581 12.0565 3.88833 11.6808 3.86334 11.1308C3.83793 10.5796 3.83203 10.4035 3.83203 9.00001C3.83203 7.5965 3.83794 7.42045 3.8632 6.86935C3.8882 6.31921 3.97554 5.94361 4.10326 5.61485C4.23303 5.27001 4.43655 4.95759 4.69954 4.69955C4.95758 4.43656 5.27 4.23318 5.61484 4.1034C5.9436 3.97569 6.3192 3.88834 6.86934 3.86321C7.42044 3.83808 7.5965 3.83204 9 3.83204C10.4035 3.83204 10.5796 3.83808 11.1307 3.86335C11.6808 3.88835 12.0564 3.97569 12.3852 4.10327C12.73 4.23304 13.0424 4.43656 13.3006 4.69955C13.5634 4.95773 13.767 5.27001 13.8966 5.61485C14.0245 5.94361 14.1118 6.31921 14.1369 6.86935C14.1621 7.42045 14.168 7.59651 14.168 9.00001C14.168 10.4035 14.1621 10.5796 14.1368 11.1307Z" fill="black"/>
</g>
<defs>
<clipPath id="clip0">
<rect width="18" height="18" fill="white"/>
</clipPath>
</defs>
</svg>
