<svg width="18" height="18" viewBox="0 0 18 18" fill="none" xmlns="http://www.w3.org/2000/svg">
<g opacity="0.5" clip-path="url(#clip0)">
<path d="M18 9.00002C18 4.02892 13.9711 1.77016e-05 9 1.68324e-05C4.02891 1.59632e-05 -7.04436e-07 4.02892 -1.57361e-06 9.00002C-2.44278e-06 13.9711 4.0289 18 9 18C9.05273 18 9.10547 18 9.1582 17.9965L9.1582 10.9934L7.22461 10.9934L7.22461 8.73986L9.1582 8.73986L9.1582 7.08049C9.1582 5.15744 10.3324 4.10978 12.048 4.10978C12.8707 4.10978 13.5773 4.16955 13.7812 4.19767L13.7812 6.20861L12.6 6.20861C11.6684 6.20861 11.4855 6.65158 11.4855 7.30197L11.4855 8.73635L13.718 8.73635L13.4262 10.9899L11.4855 10.9899L11.4855 17.652C15.2473 16.5727 18 13.1098 18 9.00002Z" fill="black"/>
</g>
<defs>
<clipPath id="clip0">
<rect width="18" height="18" fill="white"/>
</clipPath>
</defs>
</svg>
