<svg width="73" height="20" viewBox="0 0 73 20" fill="none" xmlns="http://www.w3.org/2000/svg">
<path d="M4.42488 9.04768C4.50989 9.13269 4.5524 9.25171 4.5524 9.40473C4.5524 9.55775 4.53964 9.69377 4.51414 9.81279C4.49289 9.93181 4.44826 10.0508 4.38025 10.1698C4.24423 10.4036 3.98494 10.6459 3.60239 10.8967L1.35807 12.3887L3.60239 13.8806C4.13371 14.2504 4.43763 14.6117 4.51414 14.9645C4.53964 15.0835 4.5524 15.1919 4.5524 15.2897C4.5524 15.498 4.50989 15.6446 4.42488 15.7296L0.357051 12.9306C0.119017 12.7648 0 12.5842 0 12.3887C0 12.1931 0.119017 12.0125 0.357051 11.8467L4.42488 9.04768Z" fill="black"/>
<path d="M6.43966 17.9038C6.06986 17.9038 5.88496 17.6913 5.88496 17.2662C5.88496 17.0962 5.93384 16.8688 6.03161 16.584L9.42359 6.08289C9.49585 6.02763 9.58298 6 9.685 6C10.0548 6 10.2397 6.21253 10.2397 6.63759C10.2397 6.80761 10.1908 7.03502 10.0931 7.31981L6.70108 17.8209C6.62882 17.8762 6.54168 17.9038 6.43966 17.9038Z" fill="black"/>
<path d="M11.7253 9.04768C11.6403 9.13269 11.5978 9.25171 11.5978 9.40473C11.5978 9.55775 11.6084 9.69377 11.6297 9.81279C11.6552 9.93181 11.7019 10.0508 11.7699 10.1698C11.9059 10.4036 12.1652 10.6459 12.5478 10.8967L14.7921 12.3887L12.5478 13.8806C12.0165 14.2504 11.7125 14.6117 11.636 14.9645C11.6105 15.0835 11.5978 15.1919 11.5978 15.2897C11.5978 15.498 11.6403 15.6446 11.7253 15.7296L15.7931 12.9306C16.0311 12.7648 16.1502 12.5842 16.1502 12.3887C16.1502 12.1931 16.0311 12.0125 15.7931 11.8467L11.7253 9.04768Z" fill="black"/>
<g clip-path="url(#clip0)">
<path d="M58.5157 13.4233C58.5157 13.6133 58.526 13.8006 58.5455 13.985C57.418 14.4002 56.6137 15.4838 56.6137 16.7555C56.6137 18.3855 57.9351 19.707 59.5653 19.707C60.0719 19.707 60.5486 19.5792 60.9652 19.3543C61.3357 19.6711 61.7856 19.8972 62.2808 19.9999L62.2888 17.5352H61.864C61.5293 17.5352 61.258 17.2639 61.258 16.9292C61.258 16.5945 61.5293 16.3231 61.864 16.3231H63.9193C64.254 16.3231 64.5253 16.5945 64.5253 16.9292C64.5253 17.2639 64.254 17.5352 63.9193 17.5352H63.5008L63.4929 19.9977C64.0045 19.8897 64.4674 19.6499 64.8438 19.3145C65.2766 19.5637 65.7782 19.7069 66.3136 19.7069C67.9436 19.7069 69.2651 18.3855 69.2651 16.7554C69.2651 15.5271 68.5146 14.4743 67.4472 14.0298C67.47 13.8311 67.4818 13.6287 67.4818 13.4233C67.4818 10.735 65.4747 8.55566 62.9988 8.55566C60.5228 8.5557 58.5157 10.735 58.5157 13.4233V13.4233ZM64.8593 12.8672C65.1937 12.8672 65.4647 13.1383 65.4647 13.4726C65.4647 13.807 65.1936 14.078 64.8593 14.078C64.525 14.078 64.2539 13.807 64.2539 13.4726C64.2539 13.1383 64.525 12.8672 64.8593 12.8672ZM61.065 12.8672C61.3994 12.8672 61.6704 13.1383 61.6704 13.4726C61.6704 13.807 61.3993 14.078 61.065 14.078C60.7307 14.078 60.4596 13.807 60.4596 13.4726C60.4596 13.1383 60.7307 12.8672 61.065 12.8672Z" fill="black"/>
<path d="M65.2496 7.83667C65.5637 7.98094 65.8625 8.15386 66.1446 8.35353C66.3648 7.86697 66.6091 7.16455 66.689 6.32205C66.7206 5.98887 67.0162 5.74459 67.3495 5.77594C67.6827 5.80754 67.9272 6.10327 67.8956 6.43649C67.7808 7.6476 67.3865 8.6102 67.0872 9.19005C67.3368 9.46471 67.5592 9.7604 67.7533 10.0732C71.0316 6.11257 68.8995 1.73644 67.9029 0.254785C67.6874 -0.0656149 67.2243 -0.0878611 66.9787 0.210097C64.9034 2.72849 64.9913 6.29488 65.1741 7.8032C65.1993 7.81435 65.2245 7.82517 65.2496 7.83667V7.83667Z" fill="black"/>
<path d="M58.9119 9.1883C58.6127 8.60826 58.2192 7.64639 58.1044 6.43654C58.0728 6.10335 58.3173 5.80762 58.6505 5.77599C58.9838 5.7446 59.2794 5.98891 59.3111 6.3221C59.3915 7.17043 59.6338 7.87007 59.8528 8.35358C60.1349 8.15391 60.4337 7.98095 60.7479 7.83668C60.7738 7.82476 60.8 7.81353 60.826 7.80204C61.0087 6.29321 61.096 2.72783 59.0213 0.210097C58.7757 -0.0878612 58.3126 -0.065615 58.0971 0.254785C57.1007 1.73621 54.9691 6.11125 58.2452 10.0713C58.4394 9.75857 58.6621 9.46292 58.9119 9.1883V9.1883Z" fill="black"/>
</g>
<g clip-path="url(#clip1)">
<path d="M36.7928 17.5068C36.8641 17.5796 36.9611 17.62 37.0626 17.62C37.1642 17.62 37.2612 17.5796 37.3324 17.5068L42.1794 12.5956C44.2008 10.548 42.7645 7.0105 39.8898 7.0105C38.1635 7.0105 37.3713 8.27909 37.0626 8.51604C36.7524 8.27808 35.9653 7.0105 34.2354 7.0105C31.3699 7.0105 29.9159 10.5389 31.9463 12.5956L36.7928 17.5068Z" fill="#F44336"/>
</g>
<g clip-path="url(#clip2)">
<path d="M26.2139 12.002H20.2626C20.1175 12.002 20 12.1196 20 12.2645C20 12.4095 20.1175 12.5271 20.2626 12.5271H26.2139C26.359 12.5271 26.4765 12.4095 26.4765 12.2645C26.4765 12.1195 26.359 12.002 26.2139 12.002Z" fill="#4F4F4F"/>
<path d="M26.452 12.0788L23.879 9.5057C23.7765 9.40321 23.6104 9.40321 23.5078 9.5057C23.4052 9.60828 23.4052 9.77456 23.5078 9.87705L25.8951 12.2645L23.5078 14.652C23.4052 14.7545 23.4052 14.9208 23.5078 15.0233C23.5591 15.0745 23.6262 15.1002 23.6934 15.1002C23.7606 15.1002 23.8278 15.0745 23.879 15.0233L26.452 12.4502C26.5546 12.3476 26.5546 12.1813 26.452 12.0788Z" fill="#4F4F4F"/>
</g>
<g clip-path="url(#clip3)">
<path d="M53.2139 12.002H47.2626C47.1175 12.002 47 12.1196 47 12.2645C47 12.4095 47.1175 12.5271 47.2626 12.5271H53.2139C53.359 12.5271 53.4765 12.4095 53.4765 12.2645C53.4765 12.1195 53.359 12.002 53.2139 12.002Z" fill="#333333"/>
<path d="M53.452 12.0788L50.879 9.5057C50.7765 9.40321 50.6104 9.40321 50.5078 9.5057C50.4052 9.60828 50.4052 9.77456 50.5078 9.87705L52.8951 12.2645L50.5078 14.652C50.4052 14.7545 50.4052 14.9208 50.5078 15.0233C50.5591 15.0745 50.6262 15.1002 50.6934 15.1002C50.7606 15.1002 50.8278 15.0745 50.879 15.0233L53.452 12.4502C53.5546 12.3476 53.5546 12.1813 53.452 12.0788Z" fill="#333333"/>
</g>
<defs>
<clipPath id="clip0">
<rect width="20" height="20" fill="white" transform="translate(53)"/>
</clipPath>
<clipPath id="clip1">
<rect width="12.1251" height="12.1251" fill="white" transform="translate(31 6)"/>
</clipPath>
<clipPath id="clip2">
<rect width="6.52893" height="6.52893" fill="white" transform="translate(20 9)"/>
</clipPath>
<clipPath id="clip3">
<rect width="6.52893" height="6.52893" fill="white" transform="translate(47 9)"/>
</clipPath>
</defs>
</svg>
