<svg width="0" height="0" class="hidden">
  <symbol viewBox="0 0 18 18" xmlns="http://www.w3.org/2000/svg" id="instagram">
    <g>
      <path d="M10.723 9a1.723 1.723 0 1 1-3.446 0 1.723 1.723 0 0 1 3.446 0z"></path>
      <path d="M13.029 5.952a1.6 1.6 0 0 0-.387-.594 1.6 1.6 0 0 0-.594-.387c-.182-.07-.456-.155-.96-.178-.545-.024-.708-.03-2.088-.03-1.38 0-1.543.005-2.088.03-.504.023-.778.108-.96.178a1.6 1.6 0 0 0-.594.387c-.172.167-.304.37-.387.594-.07.182-.155.456-.178.96-.025.545-.03.708-.03 2.088 0 1.38.005 1.543.03 2.088.023.504.107.778.178.96.083.225.215.428.387.594a1.6 1.6 0 0 0 .594.387c.182.07.456.155.96.178.545.025.708.03 2.088.03 1.38 0 1.543-.005 2.088-.03.504-.023.778-.107.96-.178.45-.174.807-.53.98-.981.071-.182.156-.456.179-.96.024-.544.03-.708.03-2.088 0-1.38-.005-1.543-.03-2.088-.023-.504-.107-.778-.178-.96zM9 11.654a2.654 2.654 0 1 1 0-5.308 2.654 2.654 0 0 1 0 5.308zm2.759-4.792a.62.62 0 1 1 0-1.24.62.62 0 0 1 0 1.24z"></path>
      <path d="M9 0a9.001 9.001 0 0 0 0 18A9.001 9.001 0 0 0 9 0zm5.137 11.13c-.025.55-.113.926-.24 1.255a2.642 2.642 0 0 1-1.512 1.512c-.329.127-.704.215-1.254.24-.551.025-.727.031-2.13.031-1.405 0-1.58-.006-2.132-.031-.55-.025-.925-.113-1.254-.24A2.532 2.532 0 0 1 4.7 13.3a2.533 2.533 0 0 1-.596-.915c-.128-.329-.216-.704-.24-1.254-.026-.551-.032-.728-.032-2.131 0-1.404.006-1.58.031-2.13.025-.55.113-.926.24-1.255.13-.345.334-.657.597-.915.258-.263.57-.467.915-.597.329-.127.704-.215 1.254-.24.551-.025.728-.031 2.131-.031 1.403 0 1.58.006 2.13.031.55.025.926.113 1.255.24.345.13.657.334.916.597.262.258.466.57.596.915.127.329.215.704.24 1.254.025.551.031.728.031 2.131 0 1.403-.006 1.58-.031 2.13z"></path>
    </g>
    <defs>
      <clipPath id="clip0">
        <path fill="#fff" d="M0 0h18v18H0z"></path>
      </clipPath>
    </defs>
  </symbol>
  <symbol viewBox="0 0 18 18" xmlns="http://www.w3.org/2000/svg" id="git">
    <g>
      <path d="M9 .375c-4.973 0-9 3.96-9 8.844 0 3.908 2.579 7.223 6.154 8.391.45.083.615-.19.615-.425 0-.21-.008-.767-.011-1.504-2.504.533-3.032-1.186-3.032-1.186-.41-1.021-1.001-1.294-1.001-1.294-.816-.549.063-.537.063-.537.904.061 1.378.911 1.378.911.803 1.352 2.107.962 2.621.736.082-.572.313-.962.57-1.183-1.998-.221-4.099-.982-4.099-4.37 0-.965.349-1.754.926-2.373-.101-.224-.405-1.123.079-2.341 0 0 .754-.237 2.475.907a8.786 8.786 0 0 1 2.25-.299c.765.005 1.53.102 2.25.299 1.71-1.144 2.464-.907 2.464-.907.483 1.218.18 2.117.09 2.34.574.62.922 1.409.922 2.374 0 3.397-2.104 4.145-4.106 4.363.315.265.607.807.607 1.636 0 1.184-.01 2.135-.01 2.422 0 .232.157.508.618.42C15.423 16.438 18 13.12 18 9.219 18 4.335 13.97.375 9 .375z"></path>
    </g>
    <defs>
      <clipPath id="clip0">
        <path fill="#fff" d="M0 0h18v18H0z"></path>
      </clipPath>
    </defs>
  </symbol>
  <symbol viewBox="0 0 18 18" xmlns="http://www.w3.org/2000/svg" id="facebook">
    <g>
      <path d="M18 9a9 9 0 0 0-9-9 9 9 0 0 0-9 9 9 9 0 0 0 9 9c.053 0 .105 0 .158-.003v-7.004H7.225V8.74h1.933V7.08c0-1.923 1.174-2.97 2.89-2.97.823 0 1.53.06 1.733.088v2.01H12.6c-.932 0-1.114.444-1.114 1.094v1.434h2.232l-.292 2.254h-1.94v6.662A9.003 9.003 0 0 0 18 9z"></path>
    </g>
    <defs>
      <clipPath id="clip0">
        <path fill="#fff" d="M0 0h18v18H0z"></path>
      </clipPath>
    </defs>
  </symbol>
  <symbol viewBox="0 0 18 18" xmlns="http://www.w3.org/2000/svg" id="telegram">
    <g>
      <path d="M9 18c4.972 0 9-4.028 9-9s-4.028-9-9-9-9 4.028-9 9 4.028 9 9 9zM4.118 8.805l8.678-3.346c.402-.145.754.099.624.708v-.001l-1.477 6.96c-.11.494-.403.614-.813.382l-2.25-1.659-1.085 1.046c-.12.12-.221.221-.454.221l.16-2.29 4.17-3.767c.181-.16-.04-.25-.28-.09l-5.153 3.244-2.222-.693c-.482-.153-.493-.482.102-.715z"></path>
    </g>
    <defs>
      <clipPath id="clip0">
        <path fill="#fff" d="M0 0h18v18H0z"></path>
      </clipPath>
    </defs>
  </symbol>
</svg>