<svg width="18" height="18" viewBox="0 0 18 18" fill="none" xmlns="http://www.w3.org/2000/svg">
<g opacity="0.5" clip-path="url(#clip0)">
<path d="M9 18C13.9717 18 18 13.9718 18 9.00001C18 4.02826 13.9718 1.00723e-05 9 9.203e-06C4.02825 8.33372e-06 -7.04322e-07 4.02826 -1.57361e-06 9.00001C-2.4429e-06 13.9718 4.02825 18 9 18ZM4.11825 8.80501L12.7957 5.45926C13.1985 5.31376 13.5502 5.55751 13.4197 6.16651L13.4205 6.16576L11.943 13.1265C11.8335 13.62 11.5402 13.74 11.13 13.5075L8.88 11.8493L7.79475 12.8948C7.67475 13.0148 7.5735 13.116 7.341 13.116L7.50075 10.8263L11.6707 7.05901C11.8522 6.89926 11.6302 6.80926 11.391 6.96826L6.23775 10.2128L4.01625 9.51976C3.534 9.36676 3.5235 9.03751 4.11825 8.80501Z" fill="black"/>
</g>
<defs>
<clipPath id="clip0">
<rect width="18" height="18" fill="white"/>
</clipPath>
</defs>
</svg>
